<?xml version="1.0" encoding="UTF-8" standalone="no"?>
<!-- Created with Inkscape (http://www.inkscape.org/) -->

<svg
   width="210mm"
   height="297mm"
   viewBox="0 0 210 297"
   version="1.1"
   id="svg1"
   inkscape:version="1.3.2 (091e20e, 2023-11-25, custom)"
   sodipodi:docname="resistor.svg"
   inkscape:export-filename="..\..\..\Projects\Software\resistor-color-code-app\Resources\AppIcon\appicon.svg"
   inkscape:export-xdpi="168.26961"
   inkscape:export-ydpi="168.26961"
   xmlns:inkscape="http://www.inkscape.org/namespaces/inkscape"
   xmlns:sodipodi="http://sodipodi.sourceforge.net/DTD/sodipodi-0.dtd"
   xmlns="http://www.w3.org/2000/svg"
   xmlns:svg="http://www.w3.org/2000/svg">
  <sodipodi:namedview
     id="namedview1"
     pagecolor="#505050"
     bordercolor="#ffffff"
     borderopacity="1"
     inkscape:showpageshadow="0"
     inkscape:pageopacity="0"
     inkscape:pagecheckerboard="1"
     inkscape:deskcolor="#505050"
     inkscape:document-units="mm"
     inkscape:zoom="1"
     inkscape:cx="366"
     inkscape:cy="455.5"
     inkscape:window-width="1920"
     inkscape:window-height="1009"
     inkscape:window-x="-8"
     inkscape:window-y="-8"
     inkscape:window-maximized="1"
     inkscape:current-layer="g385" />
  <defs
     id="defs1">
    <clipPath
       clipPathUnits="userSpaceOnUse"
       id="clipPath41">
      <path
         d="M 0,980 H 1400 V 0 H 0 Z"
         transform="translate(-353.38181,-36.196776)"
         id="path41" />
    </clipPath>
    <clipPath
       clipPathUnits="userSpaceOnUse"
       id="clipPath43">
      <path
         d="M 0,980 H 1400 V 0 H 0 Z"
         transform="translate(-159.3096,-127.27978)"
         id="path43" />
    </clipPath>
    <clipPath
       clipPathUnits="userSpaceOnUse"
       id="clipPath45">
      <path
         d="M 0,980 H 1400 V 0 H 0 Z"
         transform="translate(-313.86081,-127.27978)"
         id="path45" />
    </clipPath>
    <clipPath
       clipPathUnits="userSpaceOnUse"
       id="clipPath47">
      <path
         d="M 0,980 H 1400 V 0 H 0 Z"
         transform="translate(0,2.5000001e-5)"
         id="path47" />
    </clipPath>
    <clipPath
       clipPathUnits="userSpaceOnUse"
       id="clipPath49">
      <path
         d="M 0,980 H 1400 V 0 H 0 Z"
         transform="translate(0,2.5000001e-5)"
         id="path49" />
    </clipPath>
    <clipPath
       clipPathUnits="userSpaceOnUse"
       id="clipPath51">
      <path
         d="M 0,980 H 1400 V 0 H 0 Z"
         transform="translate(0,2.5000001e-5)"
         id="path51" />
    </clipPath>
    <clipPath
       clipPathUnits="userSpaceOnUse"
       id="clipPath53">
      <path
         d="M 0,980 H 1400 V 0 H 0 Z"
         transform="translate(0,2.5000001e-5)"
         id="path53" />
    </clipPath>
    <clipPath
       clipPathUnits="userSpaceOnUse"
       id="clipPath55">
      <path
         d="M 0,980 H 1400 V 0 H 0 Z"
         transform="translate(0,2.5000001e-5)"
         id="path55" />
    </clipPath>
    <clipPath
       clipPathUnits="userSpaceOnUse"
       id="clipPath41-5">
      <path
         d="M 0,980 H 1400 V 0 H 0 Z"
         transform="translate(-353.38181,-36.196776)"
         id="path41-5" />
    </clipPath>
    <clipPath
       clipPathUnits="userSpaceOnUse"
       id="clipPath43-3">
      <path
         d="M 0,980 H 1400 V 0 H 0 Z"
         transform="translate(-159.3096,-127.27978)"
         id="path43-9" />
    </clipPath>
    <clipPath
       clipPathUnits="userSpaceOnUse"
       id="clipPath45-9">
      <path
         d="M 0,980 H 1400 V 0 H 0 Z"
         transform="translate(-313.86081,-127.27978)"
         id="path45-4" />
    </clipPath>
    <clipPath
       clipPathUnits="userSpaceOnUse"
       id="clipPath47-5">
      <path
         d="M 0,980 H 1400 V 0 H 0 Z"
         transform="translate(0,2.5000001e-5)"
         id="path47-3" />
    </clipPath>
    <clipPath
       clipPathUnits="userSpaceOnUse"
       id="clipPath49-6">
      <path
         d="M 0,980 H 1400 V 0 H 0 Z"
         transform="translate(0,2.5000001e-5)"
         id="path49-4" />
    </clipPath>
    <clipPath
       clipPathUnits="userSpaceOnUse"
       id="clipPath51-5">
      <path
         d="M 0,980 H 1400 V 0 H 0 Z"
         transform="translate(0,2.5000001e-5)"
         id="path51-3" />
    </clipPath>
    <clipPath
       clipPathUnits="userSpaceOnUse"
       id="clipPath53-1">
      <path
         d="M 0,980 H 1400 V 0 H 0 Z"
         transform="translate(0,2.5000001e-5)"
         id="path53-6" />
    </clipPath>
    <clipPath
       clipPathUnits="userSpaceOnUse"
       id="clipPath55-9">
      <path
         d="M 0,980 H 1400 V 0 H 0 Z"
         transform="translate(0,2.5000001e-5)"
         id="path55-8" />
    </clipPath>
    <filter
       inkscape:collect="always"
       style="color-interpolation-filters:sRGB"
       id="filter385"
       x="-0.11825568"
       y="-0.28090847"
       width="1.2365114"
       height="1.5618169">
      <feGaussianBlur
         inkscape:collect="always"
         stdDeviation="5.5826623"
         id="feGaussianBlur385" />
    </filter>
  </defs>
  <g
     inkscape:label="Resistor"
     inkscape:groupmode="layer"
     id="layer1-7"
     transform="translate(1.3282293,-15.399527)"
     style="display:inline">
    <g
       id="g384"
       style="display:inline;mix-blend-mode:normal;stroke:#00ffff;stroke-opacity:1;filter:url(#filter385)"
       transform="translate(-1.3282293,15.399527)"
       inkscape:label="Neon"
       inkscape:export-filename="..\..\..\Projects\Software\resistor-color-code\ResistorColorCode.App\Resources\Splash\splash.svg"
       inkscape:export-xdpi="62.631508"
       inkscape:export-ydpi="62.631508">
      <path
         id="path40"
         d="m 0,0 h -9.168 v 55.581 c 0,17.049 -13.869,30.919 -30.918,30.919 h -245.222 c -17.049,0 -30.919,-13.87 -30.919,-30.919 V 0 h -9.167 v 55.581 c 0,22.103 17.983,40.086 40.086,40.086 H -40.086 C -17.983,95.667 0,77.684 0,55.581 Z"
         style="fill:#d1d3d4;fill-opacity:1;fill-rule:nonzero;stroke:#00ffff;stroke-opacity:1"
         transform="matrix(0.35277776,0,0,-0.35277776,159.76562,165.58874)"
         clip-path="url(#clipPath41)"
         inkscape:label="Terminal" />
      <path
         id="path42"
         d="m 0,0 c 0,-25.351 -20.551,-45.899 -45.9,-45.899 -25.351,0 -45.903,20.548 -45.903,45.899 0,25.352 20.552,45.9 45.903,45.9 C -20.551,45.9 0,25.352 0,0"
         style="fill:#216481;fill-opacity:1;fill-rule:nonzero;stroke:#00ffff;stroke-opacity:1"
         transform="matrix(0.35277776,0,0,-0.35277776,91.301257,133.45668)"
         clip-path="url(#clipPath43)"
         inkscape:label="Part1" />
      <path
         id="path44"
         d="m 0,0 c 0,-25.351 -20.551,-45.899 -45.9,-45.899 -25.351,0 -45.902,20.548 -45.902,45.899 0,25.352 20.551,45.9 45.902,45.9 C -20.551,45.9 0,25.352 0,0"
         style="fill:#216481;fill-opacity:1;fill-rule:nonzero;stroke:#00ffff;stroke-opacity:1"
         transform="matrix(0.35277776,0,0,-0.35277776,145.82349,133.45668)"
         clip-path="url(#clipPath45)"
         inkscape:label="Part3" />
      <path
         id="path46"
         d="m 239.035,91.53 h -96.7 v 71.5 h 96.7 z"
         style="fill:#216481;fill-opacity:1;fill-rule:nonzero;stroke:#00ffff;stroke-opacity:1"
         transform="matrix(0.35277776,0,0,-0.35277776,35.100371,178.35817)"
         clip-path="url(#clipPath47)"
         inkscape:label="Part2" />
      <path
         id="path48"
         d="m 156.525,91.53 h -14.19 v 71.5 h 14.19 z"
         style="fill:#00ffff;fill-opacity:1;fill-rule:nonzero;stroke:#00ffff;stroke-width:0.150236;stroke-linecap:round;stroke-dasharray:none;stroke-opacity:1"
         transform="matrix(0.35277776,0,0,-0.35277776,35.100371,178.35817)"
         clip-path="url(#clipPath49)"
         inkscape:label="BandFirstDigit" />
      <path
         id="path50"
         d="m 184.028,91.53 h -14.19 v 71.5 h 14.19 z"
         style="fill:#00ffff;fill-opacity:1;fill-rule:nonzero;stroke:#00ffff;stroke-opacity:1"
         transform="matrix(0.35277776,0,0,-0.35277776,35.100371,178.35817)"
         clip-path="url(#clipPath51)"
         inkscape:label="BandSecondDigit" />
      <path
         id="path52"
         d="m 211.531,91.53 h -14.19 v 71.5 h 14.19 z"
         style="fill:#00ffff;fill-opacity:1;fill-rule:nonzero;stroke:#00ffff;stroke-opacity:1"
         transform="matrix(0.35277776,0,0,-0.35277776,35.100371,178.35817)"
         clip-path="url(#clipPath53)"
         inkscape:label="BandMultiplier" />
      <path
         id="path54"
         d="m 239.035,91.53 h -14.19 v 71.5 h 14.19 z"
         style="fill:#00ffff;fill-opacity:1;fill-rule:nonzero;stroke:#00ffff;stroke-opacity:1"
         transform="matrix(0.35277776,0,0,-0.35277776,35.100371,178.35817)"
         clip-path="url(#clipPath55)"
         inkscape:label="BandTolerance" />
    </g>
    <g
       id="g385"
       transform="translate(-1.3282456,15.399565)"
       inkscape:export-filename="..\..\..\Projects\Software\resistor-color-code-app\Resources\Splash\splash.svg"
       inkscape:export-xdpi="262.80591"
       inkscape:export-ydpi="262.80591"
       style="display:inline"
       inkscape:label="Layer">
      <path
         id="path40-3"
         d="m 0,0 h -9.168 v 55.581 c 0,17.049 -13.869,30.919 -30.918,30.919 h -245.222 c -17.049,0 -30.919,-13.87 -30.919,-30.919 V 0 h -9.167 v 55.581 c 0,22.103 17.983,40.086 40.086,40.086 H -40.086 C -17.983,95.667 0,77.684 0,55.581 Z"
         style="fill:#d1d3d4;fill-opacity:1;fill-rule:nonzero;stroke:none"
         transform="matrix(0.35277776,0,0,-0.35277776,159.76562,165.58874)"
         clip-path="url(#clipPath41-5)"
         inkscape:label="Terminal" />
      <path
         id="path44-0"
         d="m 0,0 c 0,-25.351 -20.551,-45.899 -45.9,-45.899 -25.351,0 -45.902,20.548 -45.902,45.899 0,25.352 20.551,45.9 45.902,45.9 C -20.551,45.9 0,25.352 0,0"
         style="fill:#216481;fill-opacity:1;fill-rule:nonzero;stroke:none"
         transform="matrix(0.35277776,0,0,-0.35277776,145.82349,133.45668)"
         clip-path="url(#clipPath45-9)"
         inkscape:label="Part3" />
      <path
         id="path46-2"
         d="m 239.035,91.53 h -96.7 v 71.5 h 96.7 z"
         style="display:inline;fill:#216481;fill-opacity:1;fill-rule:nonzero;stroke:none"
         transform="matrix(0.35277777,0,0,-0.35277777,35.100372,178.35817)"
         clip-path="url(#clipPath47-5)"
         inkscape:label="Part2" />
      <path
         id="path42-9"
         d="m 0,0 c 0,-25.351 -20.551,-45.899 -45.9,-45.899 -25.351,0 -45.903,20.548 -45.903,45.899 0,25.352 20.552,45.9 45.903,45.9 C -20.551,45.9 0,25.352 0,0"
         style="display:inline;fill:#216481;fill-opacity:1;fill-rule:nonzero;stroke:none"
         transform="matrix(0.35277777,0,0,-0.35277777,91.301256,133.45668)"
         clip-path="url(#clipPath43-3)"
         inkscape:label="Part1" />
      <path
         id="path48-6"
         d="m 156.525,91.53 h -14.19 v 71.5 h 14.19 z"
         style="fill:#00ffff;fill-opacity:1;fill-rule:nonzero;stroke:#000000;stroke-width:0.150236;stroke-linecap:round;stroke-dasharray:none;stroke-opacity:1"
         transform="matrix(0.35277776,0,0,-0.35277776,35.100371,178.35817)"
         clip-path="url(#clipPath49-6)"
         inkscape:label="BandFirstDigit" />
      <path
         id="path50-3"
         d="m 184.028,91.53 h -14.19 v 71.5 h 14.19 z"
         style="fill:#00ffff;fill-opacity:1;fill-rule:nonzero;stroke:none"
         transform="matrix(0.35277776,0,0,-0.35277776,35.100371,178.35817)"
         clip-path="url(#clipPath51-5)"
         inkscape:label="BandSecondDigit" />
      <path
         id="path52-3"
         d="m 211.531,91.53 h -14.19 v 71.5 h 14.19 z"
         style="fill:#00ffff;fill-opacity:1;fill-rule:nonzero;stroke:none"
         transform="matrix(0.35277776,0,0,-0.35277776,35.100371,178.35817)"
         clip-path="url(#clipPath53-1)"
         inkscape:label="BandMultiplier" />
      <path
         id="path54-6"
         d="m 239.035,91.53 h -14.19 v 71.5 h 14.19 z"
         style="fill:#00ffff;fill-opacity:1;fill-rule:nonzero;stroke:none"
         transform="matrix(0.35277776,0,0,-0.35277776,35.100371,178.35817)"
         clip-path="url(#clipPath55-9)"
         inkscape:label="BandTolerance" />
    </g>
  </g>
</svg>
